<svg xmlns="http://www.w3.org/2000/svg" width="27" height="15" fill="none" viewBox="0 0 27 15"><path fill="#ededed" fill-rule="evenodd" d="M5.378 1.653a.5.5 0 0 1 .5.5v5.35a.5.5 0 1 1-1 0v-5.35a.5.5 0 0 1 .5-.5m3.934 0a.5.5 0 0 1 .5.5v5.35a.5.5 0 1 1-1 0v-5.35a.5.5 0 0 1 .5-.5m3.933 0a.5.5 0 0 1 .5.5v5.35a.5.5 0 1 1-1 0v-5.35a.5.5 0 0 1 .5-.5m3.935 0a.5.5 0 0 1 .5.5v5.35a.5.5 0 0 1-1 0v-5.35a.5.5 0 0 1 .5-.5m3.933 0a.5.5 0 0 1 .5.5v5.35a.5.5 0 0 1-1 0v-5.35a.5.5 0 0 1 .5-.5m4.917 10.008H.5a.5.5 0 1 1 0-1h25.53a.5.5 0 0 1 0 1" clip-rule="evenodd"/><path fill="#ededed" fill-rule="evenodd" d="M23.567 1H3.187v7.361h20.38zM3.187 0a1 1 0 0 0-1 1v7.361a1 1 0 0 0 1 1h20.38a1 1 0 0 0 1-1V1a1 1 0 0 0-1-1zm.775 13.623a.73.73 0 1 0 0-1.462.73.73 0 0 0 0 1.462m0 1a1.73 1.73 0 1 0 0-3.462 1.73 1.73 0 0 0 0 3.462" clip-rule="evenodd"/><path fill="#ededed" fill-rule="evenodd" d="M7.109 13.623a.73.73 0 1 0 0-1.462.73.73 0 0 0 0 1.462m0 1a1.73 1.73 0 1 0 0-3.462 1.73 1.73 0 0 0 0 3.462m12.941-1a.73.73 0 1 0 0-1.462.73.73 0 0 0 0 1.462m0 1a1.73 1.73 0 1 0 0-3.462 1.73 1.73 0 0 0 0 3.462" clip-rule="evenodd"/><path fill="#ededed" fill-rule="evenodd" d="M22.844 13.623a.73.73 0 1 0 0-1.462.73.73 0 0 0 0 1.462m0 1a1.73 1.73 0 1 0 0-3.462 1.73 1.73 0 0 0 0 3.462" clip-rule="evenodd"/></svg>
