<svg xmlns="http://www.w3.org/2000/svg" width="41" height="14" fill="none" viewBox="0 0 41 14"><path stroke="#ededed" stroke-linecap="round" stroke-linejoin="round" stroke-miterlimit="10" stroke-width="1.2" d="M17.107 9.471H1.235c-.35 0-.635-.33-.635-.739V1.34C.6.93.884.6 1.235.6h23.49c.352 0 .636.331.636.74v8.13h-4.444m17.141 1.48h1.27c.35 0 .634-.332.634-.74V7.253c0-.408-.284-.74-.635-.74h-5.079c-.35 0-.635-.33-.635-.738V2.818C33.613 1.593 32.761.6 31.71.6h-3.175c-.35 0-.635.331-.635.74v6.652m3.173-4.435v4.436"/><path stroke="#ededed" stroke-linecap="round" stroke-linejoin="round" stroke-miterlimit="10" stroke-width="1.2" d="M27.9 3.557h6.833c.481 0 .92.316 1.136.817l.919 2.14m1.268 4.436c0 .816-.568 1.478-1.27 1.478-.7 0-1.27-.662-1.27-1.479 0-.816.57-1.478 1.27-1.478.702 0 1.27.662 1.27 1.479m-11.426 0c0 .816-.569 1.478-1.27 1.478s-1.27-.662-1.27-1.479c0-.816.569-1.478 1.27-1.478s1.27.662 1.27 1.479m-4.444 0c0 .816-.569 1.478-1.27 1.478s-1.27-.662-1.27-1.479c0-.816.569-1.478 1.27-1.478s1.27.662 1.27 1.479m-12.064 0c0 .816-.568 1.478-1.27 1.478-.7 0-1.27-.662-1.27-1.479 0-.816.57-1.478 1.27-1.478.702 0 1.27.662 1.27 1.479m-4.446 0c0 .816-.568 1.478-1.27 1.478-.701 0-1.27-.662-1.27-1.479 0-.816.569-1.478 1.27-1.478s1.27.662 1.27 1.479m27.301 0h-6.35M25.36 7.992h5.714v2.957"/></svg>
