<svg xmlns="http://www.w3.org/2000/svg" width="14" height="18" fill="none" viewBox="0 0 14 18"><path fill="#fe0" d="M6.925 10a3.125 3.125 0 1 1 0-6.25 3.125 3.125 0 0 1 0 6.25m0-5a1.875 1.875 0 1 0 0 3.75 1.875 1.875 0 0 0 0-3.75"/><path fill="#ededed" d="m6.875 17.5-5.272-6.218L1.385 11A6.8 6.8 0 0 1 0 6.875a6.875 6.875 0 1 1 13.75 0 6.8 6.8 0 0 1-1.384 4.123l-.001.002s-.187.246-.216.28zm-4.492-7.253.179.234 4.313 5.087 4.319-5.094.174-.229a5.56 5.56 0 0 0 1.132-3.37 5.625 5.625 0 1 0-11.25 0 5.56 5.56 0 0 0 1.133 3.372"/></svg>
