<svg xmlns="http://www.w3.org/2000/svg" width="25" height="17" fill="none" viewBox="0 0 25 17"><path stroke="#080c0f" stroke-linecap="round" stroke-linejoin="round" stroke-miterlimit="10" d="M6.354 15.013c0 .802-.655 1.451-1.464 1.451s-1.463-.65-1.463-1.451c0-.802.655-1.451 1.463-1.451.809 0 1.464.65 1.464 1.45"/><path stroke="#080c0f" stroke-linecap="round" stroke-linejoin="round" stroke-miterlimit="10" d="M9.28 15.013c0 .802-.655 1.451-1.463 1.451s-1.463-.65-1.463-1.451c0-.802.655-1.451 1.463-1.451s1.463.65 1.463 1.45m10.537.001c0 .802-.655 1.451-1.463 1.451-.809 0-1.464-.65-1.464-1.451 0-.802.655-1.451 1.464-1.451s1.463.65 1.463 1.45"/><path stroke="#080c0f" stroke-linecap="round" stroke-linejoin="round" stroke-miterlimit="10" d="M12.354 15.013V1.468A.97.97 0 0 1 13.329.5h2.098c2.425 0 4.39 1.95 4.39 4.354v1.134a3.22 3.22 0 0 0 3.22 3.22c.808 0 1.463.65 1.463 1.451v3.386a.97.97 0 0 1-.976.968h-3.707"/><path stroke="#ff0" stroke-linecap="round" stroke-linejoin="round" stroke-miterlimit="10" d="M3.427 15.013H.5"/><path stroke="#080c0f" stroke-linecap="round" stroke-linejoin="round" stroke-miterlimit="10" d="M19.817 9.208h-2.213a2.177 2.177 0 1 1 0-4.354h2.213"/><path fill="#ff0" d="M19.111 8.482h-1.11a1.093 1.093 0 0 1 0-2.185h1.11"/><path stroke="#080c0f" stroke-linecap="round" stroke-linejoin="round" stroke-miterlimit="10" d="M9.28 4.854h3.074m0 0h3.073"/><path stroke="#ff0" stroke-linecap="round" stroke-linejoin="round" stroke-miterlimit="10" d="M23.037 12.11H24.5"/><path fill="#ff0" d="M9.768 9.692a.486.486 0 0 1-.487.483.486.486 0 0 1-.488-.483c0-.268.218-.484.488-.484.269 0 .487.216.487.484"/><path stroke="#080c0f" stroke-linecap="round" stroke-linejoin="round" stroke-miterlimit="10" d="M7.817.5A4.95 4.95 0 0 1 9.28 4.012v3.503m0 4.353a3.144 3.144 0 0 0 3.145 3.145h4.465"/></svg>
