<svg xmlns="http://www.w3.org/2000/svg" width="28" height="19" fill="none" viewBox="0 0 28 19"><path stroke="#fff" stroke-linecap="round" stroke-linejoin="round" stroke-miterlimit="10" d="M6.983 16.573c0 .887-.726 1.607-1.62 1.607-.896 0-1.622-.72-1.622-1.607 0-.888.726-1.608 1.621-1.608s1.62.72 1.62 1.608"/><path stroke="#fff" stroke-linecap="round" stroke-linejoin="round" stroke-miterlimit="10" d="M10.224 16.573c0 .887-.725 1.607-1.62 1.607s-1.621-.72-1.621-1.607c0-.888.725-1.608 1.62-1.608s1.621.72 1.621 1.608m11.669 0c0 .887-.726 1.607-1.62 1.607-.896 0-1.621-.72-1.621-1.607 0-.888.725-1.608 1.62-1.608s1.621.72 1.621 1.608"/><path stroke="#fff" stroke-linecap="round" stroke-linejoin="round" stroke-miterlimit="10" d="M13.628 16.573V1.57c0-.59.482-1.07 1.08-1.07h2.323c2.686 0 4.862 2.159 4.862 4.822v1.256a3.565 3.565 0 0 0 3.566 3.565c.895 0 1.62.72 1.62 1.608v3.75c0 .592-.483 1.072-1.08 1.072h-4.106"/><path stroke="#ff0" stroke-linecap="round" stroke-linejoin="round" stroke-miterlimit="10" d="M3.741 16.573H.5"/><path stroke="#fff" stroke-linecap="round" stroke-linejoin="round" stroke-miterlimit="10" d="M21.893 10.143h-2.451a2.41 2.41 0 1 1 0-4.821h2.451"/><path fill="#ff0" d="M21.111 9.34h-1.23a1.21 1.21 0 1 1 0-2.42h1.23"/><path stroke="#fff" stroke-linecap="round" stroke-linejoin="round" stroke-miterlimit="10" d="M10.224 5.322h3.404m0 0h3.403"/><path stroke="#ff0" stroke-linecap="round" stroke-linejoin="round" stroke-miterlimit="10" d="M25.459 13.358h1.62"/><path fill="#ff0" d="M10.764 10.68a.54.54 0 0 1-.54.535.54.54 0 0 1-.54-.536c0-.296.242-.536.54-.536s.54.24.54.536"/><path stroke="#fff" stroke-linecap="round" stroke-linejoin="round" stroke-miterlimit="10" d="M8.603.5a5.48 5.48 0 0 1 1.621 3.89v3.878m0 4.822a3.48 3.48 0 0 0 3.483 3.483h4.945"/></svg>
